<svg width="24" height="24" viewBox="0 0 24 24" fill="none" xmlns="http://www.w3.org/2000/svg">
<path d="M16.95 20.6667C14.8667 20.6667 12.8083 20.2126 10.775 19.3042C8.74167 18.3959 6.89167 17.1084 5.225 15.4417C3.55833 13.7751 2.27083 11.9251 1.3625 9.89175C0.454167 7.85841 0 5.80008 0 3.71675C0 3.41675 0.1 3.16675 0.3 2.96675C0.5 2.76675 0.75 2.66675 1.05 2.66675H5.1C5.33333 2.66675 5.54167 2.74591 5.725 2.90425C5.90833 3.06258 6.01667 3.25008 6.05 3.46675L6.7 6.96675C6.73333 7.23341 6.725 7.45841 6.675 7.64175C6.625 7.82508 6.53333 7.98341 6.4 8.11675L3.975 10.5667C4.30833 11.1834 4.70417 11.7792 5.1625 12.3542C5.62083 12.9292 6.125 13.4834 6.675 14.0167C7.19167 14.5334 7.73333 15.0126 8.3 15.4542C8.86667 15.8959 9.46667 16.3001 10.1 16.6667L12.45 14.3167C12.6 14.1667 12.7958 14.0542 13.0375 13.9792C13.2792 13.9042 13.5167 13.8834 13.75 13.9167L17.2 14.6167C17.4333 14.6834 17.625 14.8042 17.775 14.9792C17.925 15.1542 18 15.3501 18 15.5667V19.6167C18 19.9167 17.9 20.1667 17.7 20.3667C17.5 20.5667 17.25 20.6667 16.95 20.6667ZM3.025 8.66675L4.675 7.01675L4.25 4.66675H2.025C2.10833 5.35008 2.225 6.02508 2.375 6.69175C2.525 7.35841 2.74167 8.01675 3.025 8.66675ZM11.975 17.6167C12.625 17.9001 13.2875 18.1251 13.9625 18.2917C14.6375 18.4584 15.3167 18.5667 16 18.6167V16.4167L13.65 15.9417L11.975 17.6167Z" fill="black"/>
</svg>
