<svg width="24" height="26" viewBox="0 0 24 26" fill="none" xmlns="http://www.w3.org/2000/svg">
<path d="M21.4286 0.394531H2.57143C1.88944 0.394531 1.23539 0.682238 0.753154 1.19436C0.270918 1.70648 0 2.40107 0 3.12532L0 23.1511C0 23.8753 0.270918 24.5699 0.753154 25.082C1.23539 25.5941 1.88944 25.8819 2.57143 25.8819H9.92411V17.2167H6.54911V13.1382H9.92411V10.0296C9.92411 6.49385 11.9063 4.54077 14.9421 4.54077C16.3961 4.54077 17.9164 4.81613 17.9164 4.81613V8.2865H16.2413C14.5907 8.2865 14.0759 9.37426 14.0759 10.4899V13.1382H17.7605L17.1712 17.2167H14.0759V25.8819H21.4286C22.1106 25.8819 22.7646 25.5941 23.2468 25.082C23.7291 24.5699 24 23.8753 24 23.1511V3.12532C24 2.40107 23.7291 1.70648 23.2468 1.19436C22.7646 0.682238 22.1106 0.394531 21.4286 0.394531Z" fill="black"/>
</svg>
