<svg width="24" height="26" viewBox="0 0 24 26" fill="none" xmlns="http://www.w3.org/2000/svg">
<path d="M12.0027 6.60218C8.59743 6.60218 5.85075 9.51908 5.85075 13.1354C5.85075 16.7516 8.59743 19.6685 12.0027 19.6685C15.4079 19.6685 18.1546 16.7516 18.1546 13.1354C18.1546 9.51908 15.4079 6.60218 12.0027 6.60218ZM12.0027 17.3828C9.80212 17.3828 8.00312 15.478 8.00312 13.1354C8.00312 10.7927 9.79677 8.88794 12.0027 8.88794C14.2086 8.88794 16.0022 10.7927 16.0022 13.1354C16.0022 15.478 14.2032 17.3828 12.0027 17.3828ZM19.8412 6.33494C19.8412 7.18215 19.1987 7.85878 18.4062 7.85878C17.6085 7.85878 16.9713 7.17646 16.9713 6.33494C16.9713 5.49342 17.6138 4.8111 18.4062 4.8111C19.1987 4.8111 19.8412 5.49342 19.8412 6.33494ZM23.9157 7.88152C23.8247 5.84026 23.3856 4.03213 21.9775 2.5424C20.5747 1.05268 18.8721 0.586432 16.9499 0.484085C14.9689 0.36468 9.03112 0.36468 7.05008 0.484085C5.1333 0.580747 3.43068 1.047 2.02253 2.53672C0.614389 4.02644 0.180703 5.83458 0.0843279 7.87584C-0.0281093 9.97964 -0.0281093 16.2854 0.0843279 18.3892C0.175349 20.4304 0.614389 22.2386 2.02253 23.7283C3.43068 25.218 5.12794 25.6843 7.05008 25.7866C9.03112 25.906 14.9689 25.906 16.9499 25.7866C18.8721 25.69 20.5747 25.2237 21.9775 23.7283C23.3803 22.2386 23.8193 20.4304 23.9157 18.3892C24.0281 16.2854 24.0281 9.98533 23.9157 7.88152ZM21.3564 20.6465C20.9388 21.761 20.1303 22.6195 19.0755 23.0687C17.496 23.734 13.7481 23.5805 12.0027 23.5805C10.2572 23.5805 6.50396 23.7283 4.92984 23.0687C3.88042 22.6252 3.07195 21.7666 2.64897 20.6465C2.02253 18.9691 2.16709 14.989 2.16709 13.1354C2.16709 11.2817 2.02789 7.29587 2.64897 5.62419C3.06659 4.50975 3.87507 3.65117 4.92984 3.20197C6.50931 2.53672 10.2572 2.69024 12.0027 2.69024C13.7481 2.69024 17.5014 2.5424 19.0755 3.20197C20.1249 3.64548 20.9334 4.50406 21.3564 5.62419C21.9828 7.30155 21.8383 11.2817 21.8383 13.1354C21.8383 14.989 21.9828 18.9748 21.3564 20.6465Z" fill="black"/>
</svg>
