<svg width="48" height="48" viewBox="0 0 48 48" fill="none" xmlns="http://www.w3.org/2000/svg">
<path d="M33 25H15C14.7348 25 14.4804 24.8946 14.2929 24.7071C14.1054 24.5196 14 24.2652 14 24C14 23.7348 14.1054 23.4804 14.2929 23.2929C14.4804 23.1054 14.7348 23 15 23H33C33.2652 23 33.5196 23.1054 33.7071 23.2929C33.8946 23.4804 34 23.7348 34 24C34 24.2652 33.8946 24.5196 33.7071 24.7071C33.5196 24.8946 33.2652 25 33 25ZM33 18H15C14.7348 18 14.4804 17.8946 14.2929 17.7071C14.1054 17.5196 14 17.2652 14 17C14 16.7348 14.1054 16.4804 14.2929 16.2929C14.4804 16.1054 14.7348 16 15 16H33C33.2652 16 33.5196 16.1054 33.7071 16.2929C33.8946 16.4804 34 16.7348 34 17C34 17.2652 33.8946 17.5196 33.7071 17.7071C33.5196 17.8946 33.2652 18 33 18ZM33 32H15C14.7348 32 14.4804 31.8946 14.2929 31.7071C14.1054 31.5196 14 31.2652 14 31C14 30.7348 14.1054 30.4804 14.2929 30.2929C14.4804 30.1054 14.7348 30 15 30H33C33.2652 30 33.5196 30.1054 33.7071 30.2929C33.8946 30.4804 34 30.7348 34 31C34 31.2652 33.8946 31.5196 33.7071 31.7071C33.5196 31.8946 33.2652 32 33 32Z" fill="#5C5F62"/>
</svg>
