<svg width="572" height="713" viewBox="0 0 572 713" fill="none" xmlns="http://www.w3.org/2000/svg">
<path d="M276.816 493.648C274.609 493.648 272.634 491.972 272.286 489.638C269.324 470.132 265.898 439.016 266.188 401.499C266.653 344.953 259.916 311.085 246.153 300.853C243.714 298.998 241.1 297.323 238.545 295.767C237.093 294.81 235.641 293.912 234.247 292.955C234.17 292.915 234.112 292.875 234.073 292.835C226.465 287.749 219.439 281.346 218.858 269.14C218.393 258.01 228.208 249.453 245.804 245.504C248.011 245.025 249.463 244.846 249.521 244.846C252.076 244.487 254.341 246.282 254.689 248.855C255.038 251.428 253.296 253.821 250.799 254.18C250.799 254.18 249.579 254.36 247.663 254.779C243.017 255.796 227.627 259.865 228.033 268.721C228.382 276.26 232.273 280.329 238.835 284.817C238.913 284.857 238.99 284.897 239.068 284.936C240.461 285.894 241.913 286.791 243.365 287.689C246.036 289.424 248.824 291.16 251.553 293.194C268.279 305.7 275.828 340.106 275.364 401.559C275.073 438.478 278.442 469.055 281.345 488.202C281.752 490.775 280.01 493.169 277.513 493.588C277.28 493.628 277.048 493.648 276.816 493.648Z" fill="#05438B" stroke="white" stroke-width="0.6" stroke-miterlimit="100"/>
<path fill-rule="evenodd" clip-rule="evenodd" d="M335.064 263.096C323.856 263.096 322.113 258.309 317.526 245.564C315.783 240.837 313.46 234.315 309.918 225.818C302.02 206.79 303.239 187.702 305.679 175.016C307.13 167.537 312.764 162.092 320.139 161.134C327.514 160.177 334.251 163.947 337.445 170.768C340 176.333 342.381 183.214 344.937 190.514L346.388 194.583C353.415 214.449 352.37 245.624 344.298 257.531C341.162 262.139 337.561 263.096 335.064 263.096ZM322.346 170.409C321.997 170.409 321.649 170.429 321.3 170.469C318.629 170.828 315.435 172.683 314.68 176.812C312.473 188.24 311.312 205.294 318.339 222.108C321.939 230.784 324.32 237.426 326.062 242.273C328.037 247.778 329.373 251.368 330.534 252.745C330.941 253.223 331.347 253.702 335.064 253.702C335.412 253.702 336.051 253.163 336.806 252.086C342.614 243.47 344.298 216.184 337.793 197.814L336.342 193.686C333.844 186.625 331.521 179.983 329.14 174.837C327.631 171.546 324.785 170.409 322.346 170.409Z" fill="#05438B" stroke="white" stroke-width="0.6" stroke-miterlimit="100"/>
<path fill-rule="evenodd" clip-rule="evenodd" d="M241.972 490.417C241.701 490.417 241.43 490.397 241.159 490.357C191.796 481.441 146.615 454.754 113.977 415.142C80.9328 375.051 62.7556 323.95 62.7556 271.294C62.7556 198.353 97.542 130.019 155.848 88.3727C157.707 87.0562 160.204 87.3554 161.772 89.0309C186.105 115.12 226.002 167.477 219.381 224.801C219.265 226.177 218.626 239.7 233.9 244.487C237.733 245.684 241.798 246.043 245.979 245.504C246.057 245.504 246.134 245.484 246.212 245.444C247.102 245.365 247.992 245.205 248.883 244.966C249.038 244.926 249.193 244.886 249.348 244.846C251.206 244.427 253.122 243.769 254.981 242.931C262.298 239.7 269.441 235.272 275.655 230.186C275.771 230.066 275.887 229.967 276.003 229.887C284.482 222.826 291.451 214.449 296.678 204.935C298.594 201.405 299.872 197.635 300.453 193.745C302.485 179.923 302.195 154.792 277.339 142.705C251.787 130.139 220.485 105.366 191.564 74.7299C190.519 73.6528 190.054 72.097 190.344 70.5413C190.635 69.0454 191.622 67.7289 193.016 67.1306C220.078 55.1034 248.825 49 278.559 49C397.552 49 494.362 148.748 494.362 271.294C494.362 377.145 421.305 468.875 320.721 489.399C319.385 489.699 317.991 489.339 316.946 488.442C315.842 487.544 315.262 486.228 315.262 484.792C315.087 456.669 318.978 415.501 321.301 393.421C322.056 386.121 323.101 378.641 324.437 370.623C326.179 360.451 328.56 336.037 324.96 286.792C323.276 263.575 316.946 248.137 306.144 240.957C295.574 234.016 283.495 237.187 280.766 238.025C273.971 243.53 266.537 248.077 258.639 251.608C256.2 252.685 253.703 253.522 251.206 254.121C251.128 254.121 251.07 254.121 251.032 254.121C249.831 254.44 248.631 254.679 247.431 254.839C247.392 254.839 247.334 254.839 247.257 254.839C241.74 255.557 236.339 255.138 231.228 253.522C212.935 247.838 209.509 231.562 210.264 223.784C216.245 172.264 181.227 124.215 157.823 98.4851C103.988 138.516 71.9313 202.841 71.9313 271.294C71.9313 373.196 141.272 460.139 237.558 480.065C239.707 384.804 224.898 342.141 217.697 321.437C215.781 315.872 214.271 311.444 213.574 307.735C212.587 302.11 213.69 297.024 216.768 293.015C222.982 284.997 235.003 284.219 236.339 284.159C238.952 284.039 241.159 286.193 241.159 288.886C241.159 291.459 239.185 293.493 236.687 293.613C234.132 293.733 226.989 294.93 223.911 298.939C222.517 300.734 222.053 303.067 222.575 305.999C223.098 308.991 224.55 313.06 226.35 318.266C233.842 339.927 249.522 384.984 246.56 485.869C246.502 487.185 245.863 488.502 244.876 489.339C244.063 490.057 243.017 490.417 241.972 490.417ZM292.206 227.134C297.955 227.374 304.692 228.81 311.08 233.058C324.437 241.914 332.161 259.745 334.078 286.074C337.736 336.337 335.297 361.648 333.497 372.239C332.161 380.077 331.116 387.318 330.361 394.438C328.27 414.783 324.786 451.642 324.437 478.928C417.936 457.147 485.186 370.743 485.186 271.294C485.186 153.954 392.5 58.3944 278.559 58.3944C252.367 58.3944 226.931 63.3609 202.888 73.1741C229.718 100.699 258.001 122.779 281.288 134.148C312.59 149.466 311.429 181.958 309.512 195.181C308.757 200.208 307.131 205.055 304.634 209.602C301.208 215.885 297.026 221.809 292.206 227.134Z" fill="#05438B"/>
<path fill-rule="evenodd" clip-rule="evenodd" d="M88.0751 528.593C88.0751 530.029 87.204 530.807 85.4618 530.927C84.3003 530.568 83.1388 530.189 81.9773 529.79C80.6223 529.391 79.4414 529.191 78.4348 529.191C74.2535 529.191 71.2917 531.226 69.5495 535.295C68.6977 537.209 68.2525 539.104 68.2138 540.979C68.1751 543.891 68.8719 546.664 70.3044 549.297C71.6982 551.85 74.0793 553.306 77.4476 553.665C77.9122 553.665 78.2412 553.705 78.4348 553.784C79.5576 553.705 80.5642 553.525 81.4546 553.246C81.8031 553.126 82.2483 552.947 82.7903 552.707L84.1261 552.169C84.7068 551.929 85.2101 551.81 85.636 551.81C87.1072 551.81 87.8428 552.568 87.8428 554.083C87.8428 555.719 86.6426 556.916 84.2422 557.674C82.6161 558.152 80.6803 558.392 78.4348 558.392C71.8531 558.392 67.1491 555.699 64.3228 550.314C63.0065 547.761 62.3289 545.048 62.2902 542.176C62.2515 539.902 62.5612 537.668 63.2194 535.474C64.5358 530.967 67.1491 527.775 71.0594 525.9C73.1888 524.903 75.5698 524.384 78.2025 524.345C80.5642 524.305 82.6548 524.604 84.4745 525.242C86.178 525.88 87.3008 526.598 87.8428 527.396C87.9977 527.915 88.0751 528.314 88.0751 528.593ZM126.114 555.699C126.114 557.255 125.146 558.033 123.21 558.033H101.606C99.5931 558.033 98.5478 557.514 98.4703 556.477C98.6252 555.52 99.1479 554.423 100.038 553.186L117.112 529.491H101.955C100.329 529.491 99.4189 528.733 99.2253 527.217C99.3802 525.581 100.348 524.763 102.129 524.763H122.397C124.216 524.763 125.126 525.402 125.126 526.678C125.126 527.516 124.739 528.453 123.965 529.491L106.601 553.306H123.21C125.146 553.306 126.114 554.103 126.114 555.699ZM168.217 540.86C168.217 542.655 167.114 543.552 164.907 543.552H142.549C142.626 547.9 144.446 550.872 148.008 552.468C149.634 553.226 151.453 553.605 153.466 553.605C156.835 553.605 160.048 552.488 163.107 550.254C163.997 549.576 164.733 549.237 165.314 549.237C166.707 549.237 167.404 550.015 167.404 551.57C167.404 552.288 167.114 552.947 166.533 553.545C165.294 554.821 163.436 555.958 160.958 556.956C158.519 557.913 155.906 558.392 153.118 558.392C147.465 558.392 143.187 556.537 140.284 552.827C137.806 549.636 136.528 545.826 136.451 541.398C136.489 541.318 136.548 541.219 136.625 541.099C136.896 534.756 139.413 529.989 144.175 526.798C146.536 525.162 149.285 524.345 152.421 524.345C155.48 524.305 158.229 525.083 160.668 526.678C163.068 528.154 164.926 530.209 166.243 532.841C167.559 535.394 168.217 538.067 168.217 540.86ZM162.294 539.364C162.216 536.332 161.326 533.879 159.622 532.004C157.919 530.129 155.615 529.171 152.711 529.131C149.73 529.092 147.33 529.989 145.51 531.824C143.652 533.619 142.665 536.132 142.549 539.364H162.294ZM229.834 555.699C229.834 557.494 228.827 558.392 226.814 558.392C226.001 558.392 225.323 558.132 224.781 557.614C224.201 557.095 223.91 556.457 223.91 555.699V536.791C223.91 533.52 222.691 531.266 220.252 530.029C219.129 529.431 217.851 529.131 216.419 529.131C211.192 529.131 208.579 531.685 208.579 536.791V555.699C208.579 557.414 207.553 558.272 205.501 558.272C204.726 558.272 204.049 558.033 203.468 557.554C202.926 557.075 202.655 556.457 202.655 555.699V537.09C202.655 534.377 201.92 532.363 200.448 531.046C198.977 529.73 197.157 529.092 194.989 529.131C193.634 529.171 192.357 529.451 191.157 529.969C188.601 531.086 187.324 533.24 187.324 536.432V555.699C187.324 556.497 187.053 557.155 186.511 557.674C185.93 558.152 185.214 558.392 184.362 558.392C183.549 558.392 182.871 558.132 182.329 557.614C181.749 557.095 181.458 556.457 181.458 555.699V527.097C181.458 526.339 181.768 525.701 182.387 525.182C182.968 524.743 183.665 524.524 184.478 524.524C186.375 524.524 187.324 525.461 187.324 527.336V528.354H187.44C189.763 525.641 192.841 524.305 196.674 524.345C200.777 524.384 203.991 526.279 206.314 530.029C207.94 527.915 209.663 526.439 211.482 525.601C213.379 524.724 215.431 524.305 217.638 524.345C219.806 524.345 221.839 524.843 223.736 525.84C227.801 527.955 229.834 531.465 229.834 536.372V555.699ZM273.505 545.467C273.505 550.613 271.434 554.323 267.292 556.597C265.123 557.833 262.394 558.452 259.103 558.452C252.986 558.452 248.824 556.297 246.617 551.989C245.611 549.995 245.107 547.821 245.107 545.467V527.157C245.107 525.282 246.075 524.345 248.011 524.345C249.985 524.345 250.973 525.282 250.973 527.157V545.347C250.973 550.852 253.722 553.605 259.219 553.605C264.833 553.605 267.64 550.852 267.64 545.347V527.157C267.64 525.282 268.608 524.345 270.544 524.345C272.518 524.345 273.505 525.282 273.505 527.157V545.467ZM319.907 541.518C319.907 546.464 318.474 550.513 315.609 553.665C314.177 555.18 312.493 556.357 310.557 557.195C308.505 558.033 306.317 558.432 303.994 558.392C299.658 558.352 296.677 556.856 295.051 553.904H294.935V555.699C294.935 557.534 293.909 558.432 291.857 558.392C291.044 558.432 290.366 558.172 289.824 557.614C289.321 557.055 289.069 556.377 289.069 555.579V512.736C289.069 510.821 289.998 509.864 291.857 509.864C293.909 509.864 294.935 510.782 294.935 512.617V528.892H295.051C297.567 525.86 300.781 524.345 304.691 524.345C310.808 524.345 315.261 527.197 318.048 532.901C319.287 535.534 319.907 538.406 319.907 541.518ZM314.041 541.278C314.002 539.084 313.615 537.05 312.88 535.175C312.144 533.42 311.079 532.004 309.686 530.927C308.176 529.81 306.453 529.211 304.517 529.131C302.697 529.092 300.955 529.57 299.29 530.568C295.961 532.562 294.257 536.093 294.18 541.159C294.257 541.239 294.296 541.318 294.296 541.398C294.412 546.225 295.864 549.695 298.652 551.81C300.239 553.046 302.252 553.645 304.691 553.605C306.743 553.565 308.485 552.947 309.918 551.75C311.35 550.593 312.396 549.077 313.054 547.202C313.751 545.287 314.08 543.313 314.041 541.278ZM363.869 541.398C363.869 548.06 361.41 552.967 356.493 556.118C354.093 557.634 351.305 558.392 348.131 558.392C341.626 558.432 336.98 555.579 334.193 549.835C332.915 547.242 332.276 544.43 332.276 541.398C332.276 534.617 334.832 529.67 339.942 526.559C342.42 525.043 345.149 524.305 348.131 524.345C351.228 524.345 353.996 525.142 356.435 526.738C358.797 528.254 360.636 530.328 361.952 532.961C363.23 535.554 363.869 538.366 363.869 541.398ZM357.945 541.398C357.984 539.244 357.616 537.19 356.842 535.235C355.216 531.166 352.312 529.131 348.131 529.131C343.911 529.131 340.988 531.126 339.361 535.115C338.587 536.99 338.2 539.084 338.2 541.398C338.2 544.669 338.936 547.422 340.407 549.656C342.149 552.288 344.665 553.605 347.956 553.605C352.293 553.605 355.254 551.59 356.842 547.561C357.577 545.646 357.945 543.592 357.945 541.398ZM383.382 555.46C383.382 557.454 382.394 558.432 380.42 558.392C378.484 558.432 377.516 557.454 377.516 555.46V512.736C377.516 510.821 378.484 509.864 380.42 509.864C382.394 509.864 383.382 510.782 383.382 512.617V555.46ZM405.334 516.566C405.334 517.483 404.985 518.281 404.288 518.959C403.553 519.677 402.701 520.036 401.733 520.036C400.726 520.036 399.855 519.677 399.12 518.959C398.384 518.281 398.016 517.483 398.016 516.566C398.016 515.648 398.384 514.85 399.12 514.172C399.817 513.494 400.688 513.155 401.733 513.155C402.701 513.155 403.553 513.494 404.288 514.172C404.985 514.85 405.334 515.648 405.334 516.566ZM404.695 555.579C404.695 557.454 403.707 558.392 401.733 558.392C400.842 558.392 400.146 558.112 399.642 557.554C399.1 557.035 398.829 556.377 398.829 555.579V527.277C398.829 525.282 399.797 524.305 401.733 524.345C403.707 524.305 404.695 525.242 404.695 527.157V555.579ZM427.982 555.22C427.982 556.058 427.634 556.796 426.937 557.434C426.24 558.073 425.427 558.392 424.498 558.392C423.607 558.392 422.814 558.073 422.117 557.434C421.42 556.796 421.072 556.058 421.072 555.22C421.072 554.343 421.42 553.585 422.117 552.947C422.775 552.308 423.569 551.989 424.498 551.989C425.466 551.989 426.279 552.308 426.937 552.947C427.634 553.585 427.982 554.343 427.982 555.22ZM474.964 541.099C474.964 547.88 472.545 552.867 467.705 556.058C465.382 557.614 462.73 558.392 459.749 558.392C455.761 558.392 452.548 556.896 450.109 553.904H449.992V568.624C449.992 570.818 449.025 571.915 447.089 571.915C446.198 571.915 445.463 571.596 444.882 570.957C444.379 570.319 444.127 569.581 444.127 568.744V527.217C444.127 525.262 445.076 524.285 446.973 524.285C448.986 524.285 449.992 525.242 449.992 527.157V528.832H450.109C451.735 525.88 454.716 524.364 459.052 524.285C461.336 524.245 463.504 524.664 465.556 525.541C469.505 527.177 472.254 530.109 473.803 534.337C474.577 536.452 474.964 538.705 474.964 541.099ZM469.099 541.338C469.138 539.344 468.808 537.389 468.112 535.474C467.453 533.639 466.427 532.123 465.034 530.927C463.562 529.73 461.801 529.131 459.749 529.131C457.31 529.052 455.316 529.63 453.767 530.867C452.219 532.063 451.115 533.579 450.457 535.414C449.76 537.329 449.392 539.284 449.354 541.278C449.354 544.988 450.263 547.98 452.083 550.254C453.864 552.528 456.187 553.705 459.052 553.784C459.246 553.665 459.439 553.585 459.633 553.545C463.621 553.345 466.389 551.331 467.937 547.501C468.673 545.627 469.06 543.572 469.099 541.338ZM494.826 555.46C494.826 557.414 493.838 558.392 491.864 558.392C489.928 558.392 488.96 557.414 488.96 555.46V512.676C488.96 510.762 489.928 509.804 491.864 509.804C493.838 509.804 494.826 510.722 494.826 512.557V555.46Z" fill="#05438B"/>
<path fill-rule="evenodd" clip-rule="evenodd" d="M71.5822 610.509V628.34H62V581.847H75.1828C81.2999 581.847 85.8297 583.004 88.7722 585.317C91.7146 587.631 93.1858 591.121 93.1858 595.789C93.1858 598.501 92.4502 600.935 90.979 603.089C89.5465 605.203 87.4945 606.878 84.8231 608.115C91.5984 618.567 96.012 625.308 98.064 628.34H87.4364L76.6927 610.509H71.5822ZM71.5822 602.49H74.6601C77.68 602.49 79.9062 601.972 81.3386 600.935C82.7711 599.897 83.4874 598.262 83.4874 596.028C83.4874 593.834 82.7518 592.258 81.2806 591.301C79.8094 590.383 77.5445 589.925 74.4859 589.925H71.5822V602.49ZM144.697 605.063C144.697 612.762 142.839 618.686 139.122 622.835C135.444 626.944 130.14 628.998 123.21 628.998C116.319 628.998 111.014 626.944 107.298 622.835C103.581 618.686 101.723 612.742 101.723 605.004C101.723 597.265 103.581 591.341 107.298 587.232C111.014 583.163 116.338 581.129 123.268 581.129C130.198 581.129 135.502 583.183 139.18 587.292C142.858 591.401 144.697 597.325 144.697 605.063ZM111.769 605.063C111.769 610.249 112.718 614.159 114.615 616.791C116.551 619.424 119.416 620.741 123.21 620.741C130.837 620.741 134.651 615.515 134.651 605.063C134.651 594.572 130.856 589.326 123.268 589.326C119.474 589.326 116.609 590.643 114.673 593.276C112.737 595.948 111.769 599.878 111.769 605.063ZM154.047 581.847H168.101C174.489 581.847 179.135 582.784 182.039 584.659C184.943 586.534 186.395 589.526 186.395 593.635C186.395 596.387 185.756 598.661 184.478 600.456C183.201 602.251 181.516 603.328 179.426 603.687V603.986C182.291 604.665 184.362 605.901 185.64 607.696C186.879 609.491 187.498 611.885 187.498 614.877C187.498 619.105 186.007 622.416 183.026 624.81C180.084 627.163 176.057 628.34 170.947 628.34H154.047V581.847ZM163.63 600.276H169.147C171.741 600.276 173.638 599.878 174.838 599.08C175.961 598.242 176.522 596.866 176.522 594.951C176.522 593.156 175.903 591.879 174.664 591.121C173.386 590.324 171.373 589.925 168.624 589.925H163.63V600.276ZM163.63 608.115V620.202H169.843C172.476 620.202 174.431 619.684 175.709 618.646C176.948 617.609 177.567 616.034 177.567 613.919C177.567 610.05 174.896 608.115 169.553 608.115H163.63ZM222.517 628.34H196.499V581.847H222.517V589.925H206.082V600.157H221.355V608.235H206.082V620.202H222.517V628.34ZM241.507 610.509V628.34H231.925V581.847H245.049C251.205 581.847 255.754 583.004 258.697 585.317C261.639 587.631 263.11 591.121 263.11 595.789C263.11 598.501 262.375 600.935 260.904 603.089C259.432 605.203 257.361 606.878 254.69 608.115C261.504 618.567 265.937 625.308 267.989 628.34H257.361L246.559 610.509H241.507ZM241.507 602.49H244.643C247.663 602.49 249.889 601.972 251.321 600.935C252.754 599.897 253.47 598.262 253.47 596.028C253.47 593.834 252.734 592.258 251.263 591.301C249.792 590.383 247.508 589.925 244.411 589.925H241.507V602.49ZM291.102 628.34H281.52V590.044H269.266V581.847H303.356V590.044H291.102V628.34ZM363.056 628.34H352.196L340.349 608.773L336.284 611.765V628.34H326.759V581.847H336.284V603.089L340.058 597.644L352.312 581.847H362.94L347.202 602.431L363.056 628.34ZM408.412 605.004C408.412 612.742 406.553 618.666 402.836 622.775C399.158 626.924 393.854 628.998 386.924 628.998C380.033 628.998 374.729 626.924 371.012 622.775C367.295 618.626 365.437 612.683 365.437 604.944C365.437 597.205 367.295 591.301 371.012 587.232C374.729 583.163 380.052 581.129 386.982 581.129C393.912 581.129 399.217 583.183 402.895 587.292C406.573 591.401 408.412 597.305 408.412 605.004ZM375.484 605.004C375.484 610.229 376.432 614.159 378.329 616.791C380.265 619.424 383.13 620.741 386.924 620.741C394.551 620.701 398.365 615.455 398.365 605.004C398.365 594.552 394.571 589.326 386.982 589.326C383.188 589.326 380.323 590.643 378.387 593.276C376.452 595.908 375.484 599.818 375.484 605.004ZM436.926 589.386C433.325 589.386 430.538 590.782 428.563 593.575C426.589 596.367 425.602 600.257 425.602 605.243C425.602 615.615 429.376 620.801 436.926 620.801C440.101 620.801 443.934 619.983 448.425 618.347V626.605C444.747 628.2 440.623 628.998 436.055 628.998C429.473 628.998 424.44 626.944 420.956 622.835C417.51 618.726 415.787 612.842 415.787 605.183C415.787 600.316 416.639 596.068 418.342 592.438C420.046 588.808 422.485 586.015 425.66 584.061C428.873 582.146 432.629 581.188 436.926 581.188C441.301 581.188 445.695 582.285 450.109 584.48L447.031 592.438C445.366 591.64 443.682 590.922 441.978 590.284C440.236 589.685 438.552 589.386 436.926 589.386ZM495 628.34H485.476V608.295H467.589V628.34H458.065V581.847H467.589V600.037H485.476V581.847H495V628.34Z" fill="#05438B"/>
</svg>
